<svg width="44.01" height="23.694" viewBox="0 0 44.01 24.694" xmlns="http://www.w3.org/2000/svg" data-copyright="https://github.com/oubenruing/svg-text-animate" style="vertical-align: text-top; ">
          <g id="svgGroup" stroke-linecap="round" stroke="#000" fill="none" style="fill:none; 
            stroke:#5db4f2;
            stroke-width:1px;"><path d="M5.96 3.70L7.35 4.11Q6.31 6.71 5.06 8.84L5.06 8.84L5.06 23.63L3.65 23.63L3.65 11.02Q2.60 12.54 1.30 13.95L1.30 13.95Q0.90 13.07 0.44 12.52L0.44 12.52Q3.96 9.11 5.96 3.70L5.96 3.70ZM9.99 12.91L11.40 13.20Q10.30 17.78 8.16 20.70L8.16 20.70Q7.33 20.13 6.91 19.89L6.91 19.89Q8.89 17.47 9.99 12.91L9.99 12.91ZM19.36 9.26L14.96 9.26L14.96 21.85Q14.96 23.06 14.23 23.39L14.23 23.39Q13.55 23.69 11.37 23.69L11.37 23.69Q11.22 22.97 10.85 22.20L10.85 22.20Q11.37 22.22 13.16 22.22L13.16 22.22Q13.53 22.22 13.53 21.85L13.53 21.85L13.53 9.26L10.03 9.26Q9.09 11.46 7.90 13.13L7.90 13.13Q7.02 12.41 6.71 12.21L6.71 12.21Q9.06 9.26 10.30 3.72L10.30 3.72L11.73 4.05Q11.13 6.36 10.56 7.90L10.56 7.90L19.76 7.90L20.00 7.83L20.97 8.07Q20.53 10.71 20.00 12.67L20.00 12.67L18.77 12.43Q18.99 11.37 19.36 9.26L19.36 9.26ZM16.70 13.18L18.00 12.76Q20.20 16.76 20.81 20.15L20.81 20.15L19.43 20.61Q18.77 17.09 16.70 13.18L16.70 13.18Z" style="stroke-dasharray: 171, 173; stroke-dashoffset: 172; animation: 2000ms linear 0ms infinite alternate forwards running STAdraw;"></path><path d="M29.77 9.50L26.51 9.50Q25.94 12.21 25.17 15.05L25.17 15.05Q26.64 15.99 27.79 16.94L27.79 16.94Q29.28 13.82 29.77 9.50L29.77 9.50ZM30.40 8.10L31.31 8.32Q30.76 14.15 28.95 17.86L28.95 17.86Q30.73 19.38 31.53 20.42L31.53 20.42L30.54 21.65Q29.74 20.57 28.20 19.21L28.20 19.21Q26.47 22.04 23.58 23.63L23.58 23.63Q23.17 22.90 22.66 22.48L22.66 22.48Q25.32 21.14 27.10 18.26L27.10 18.26Q25.37 16.81 23.54 15.62L23.54 15.62Q24.35 13.13 25.12 9.50L25.12 9.50L22.99 9.50L22.99 8.14L25.39 8.14Q25.87 5.70 26.14 3.63L26.14 3.63L27.54 3.72Q27.28 5.74 26.80 8.14L26.80 8.14L30.14 8.14L30.40 8.10ZM43.01 12.96L43.01 14.34L38.08 14.34L38.08 21.87Q38.08 23.10 37.18 23.43L37.18 23.43Q36.37 23.69 33.81 23.67L33.81 23.67Q33.68 23.08 33.24 22.29L33.24 22.29Q34.58 22.31 36.10 22.31L36.10 22.31Q36.59 22.29 36.59 21.87L36.59 21.87L36.59 14.34L31.42 14.34L31.42 12.96L36.59 12.96L36.59 10.36Q38.37 8.91 39.91 6.64L39.91 6.64L32.43 6.64L32.43 5.30L40.92 5.30L41.27 5.21L42.28 5.94Q40.55 8.62 38.08 10.74L38.08 10.74L38.08 12.96L43.01 12.96Z" style="stroke-dasharray: 167, 169; stroke-dashoffset: 168; animation: 2000ms linear 0ms infinite alternate forwards running STAdraw;"></path></g>
      <style>@keyframes STAdraw{to{stroke-dashoffset:0}}</style></svg>