<svg width="422.25500000000005" height="68.805" viewBox="0 0 422.25500000000005 70.805" xmlns="http://www.w3.org/2000/svg" data-copyright="https://github.com/oubenruing/svg-text-animate" style="vertical-align: text-top; ">
          <g id="svgGroup" stroke-linecap="round" stroke="#000" fill="none" style="fill:none; 
            stroke:#005792;
            stroke-width:2px;"><path d="M12.81 55.72Q6.71 55.72 1.76 51.65L1.76 51.65L4.01 48.62Q8.30 52.20 12.98 52.20L12.98 52.20Q15.95 52.20 17.60 50.77L17.60 50.77Q19.14 49.39 19.14 47.24L19.14 47.24Q19.14 43.89 12.21 41.41L12.21 41.41Q8.03 39.88 6.16 38.45L6.16 38.45Q3.25 36.19 3.25 32.84L3.25 32.84Q3.25 29.26 5.88 26.95L5.88 26.95Q8.63 24.53 13.31 24.53L13.31 24.53Q18.21 24.53 22.33 27.83L22.33 27.83L20.18 30.75Q16.55 28.11 13.31 28.11L13.31 28.11Q10.51 28.11 8.96 29.43L8.96 29.43Q7.54 30.69 7.54 32.61L7.54 32.61Q7.54 34.59 9.63 35.91L9.63 35.91Q10.84 36.74 14.24 37.95L14.24 37.95Q18.86 39.77 20.46 40.98L20.46 40.98Q23.43 43.28 23.43 47.02L23.43 47.02Q23.43 50.77 20.68 53.13L20.68 53.13Q17.77 55.72 12.81 55.72L12.81 55.72Z" style="stroke-dasharray: 139, 141; stroke-dashoffset: 140;"><animate attributeName="stroke-dashoffset" to="0" dur="300ms" calcMode="linear" repeatCount="1" fill="freeze" begin="150ms"></animate></path><path d="M37.02 55L26.18 25.30L30.86 25.30L36.74 42.57Q37.78 46.09 39.55 51.31L39.55 51.31L39.77 51.31L42.57 42.57L48.45 25.30L52.86 25.30L42.24 55L37.02 55Z" style="stroke-dasharray: 132, 134; stroke-dashoffset: 133;"><animate attributeName="stroke-dashoffset" to="0" dur="300ms" calcMode="linear" repeatCount="1" fill="freeze" begin="300ms"></animate></path><path d="M68.69 68.81Q63.14 68.81 59.84 66.72L59.84 66.72Q56.43 64.57 56.43 60.77L56.43 60.77Q56.43 56.87 60.83 53.95L60.83 53.95L60.83 53.73Q58.13 52.09 58.13 48.84L58.13 48.84Q58.13 45.76 61.44 43.34L61.44 43.34L61.44 43.12Q57.59 40.04 57.59 35.14L57.59 35.14Q57.59 30.41 60.83 27.45L60.83 27.45Q63.97 24.53 68.59 24.53L68.59 24.53Q70.62 24.53 72.71 25.30L72.71 25.30L83.00 25.30L83.00 28.77L76.72 28.77Q79.31 31.24 79.31 35.20L79.31 35.20Q79.31 39.88 76.17 42.79L76.17 42.79Q73.15 45.59 68.59 45.59L68.59 45.59Q66.11 45.59 64.02 44.49L64.02 44.49Q62.04 46.20 62.04 48.23L62.04 48.23Q62.04 51.59 67.32 51.59L67.32 51.59L73.26 51.59Q83.49 51.59 83.49 58.63L83.49 58.63Q83.49 62.81 79.47 65.72L79.47 65.72Q75.24 68.81 68.69 68.81L68.69 68.81ZM68.59 42.52Q71.34 42.52 73.26 40.48L73.26 40.48Q75.24 38.39 75.24 35.14L75.24 35.14Q75.24 31.84 73.26 29.81L73.26 29.81Q71.39 27.89 68.59 27.89L68.59 27.89Q65.72 27.89 63.86 29.81L63.86 29.81Q61.93 31.79 61.93 35.14L61.93 35.14Q61.93 38.39 63.91 40.48L63.91 40.48Q65.84 42.52 68.59 42.52L68.59 42.52ZM69.30 65.67Q73.59 65.67 76.45 63.69L76.45 63.69Q79.09 61.82 79.09 59.29L79.09 59.29Q79.09 55.38 72.88 55.38L72.88 55.38L67.43 55.38Q65.72 55.38 63.63 54.89L63.63 54.89Q60.39 57.20 60.39 60.23L60.39 60.23Q60.39 62.70 62.76 64.19L62.76 64.19Q65.12 65.67 69.30 65.67L69.30 65.67Z" style="stroke-dasharray: 261, 263; stroke-dashoffset: 262;"><animate attributeName="stroke-dashoffset" to="0" dur="300ms" calcMode="linear" repeatCount="1" fill="freeze" begin="450ms"></animate></path><path d="M86.73 41.41L86.73 37.89L100.65 37.89L100.65 41.41L86.73 41.41Z" style="stroke-dasharray: 34, 36; stroke-dashoffset: 35;"><animate attributeName="stroke-dashoffset" to="0" dur="300ms" calcMode="linear" repeatCount="1" fill="freeze" begin="600ms"></animate></path><path d="M115.66 55.72Q107.47 55.72 107.47 46.03L107.47 46.03L107.47 28.98L102.96 28.98L102.96 25.57L107.63 25.30L108.13 16.88L111.92 16.88L111.92 25.30L120.12 25.30L120.12 28.98L111.92 28.98L111.92 46.20Q111.92 52.03 116.60 52.03L116.60 52.03Q118.08 52.03 120.06 51.26L120.06 51.26L120.94 54.62Q117.64 55.72 115.66 55.72L115.66 55.72Z" style="stroke-dasharray: 123, 125; stroke-dashoffset: 124;"><animate attributeName="stroke-dashoffset" to="0" dur="300ms" calcMode="linear" repeatCount="1" fill="freeze" begin="750ms"></animate></path><path d="M137.88 55.72Q131.83 55.72 127.93 51.59L127.93 51.59Q123.80 47.30 123.80 40.20L123.80 40.20Q123.80 33.22 127.87 28.71L127.87 28.71Q131.72 24.53 137.06 24.53L137.06 24.53Q142.61 24.53 145.69 28.27L145.69 28.27Q148.77 31.95 148.77 38.45L148.77 38.45Q148.77 40.20 148.55 41.14L148.55 41.14L128.26 41.14Q128.48 46.09 131.23 49.12L131.23 49.12Q133.98 52.14 138.44 52.14L138.44 52.14Q142.39 52.14 145.97 49.72L145.97 49.72L147.62 52.69Q142.89 55.72 137.88 55.72L137.88 55.72ZM128.20 37.89L144.81 37.89Q144.81 28.16 137.11 28.16L137.11 28.16Q133.70 28.16 131.23 30.69L131.23 30.69Q128.64 33.39 128.20 37.89L128.20 37.89Z" style="stroke-dasharray: 173, 175; stroke-dashoffset: 174;"><animate attributeName="stroke-dashoffset" to="0" dur="300ms" calcMode="linear" repeatCount="1" fill="freeze" begin="900ms"></animate></path><path d="M151.52 55L161.37 39.49L152.29 25.30L157.13 25.30L161.31 32.06Q162.25 33.72 164.34 37.02L164.34 37.02L164.56 37.02L171.21 25.30L175.83 25.30L166.81 39.93L176.60 55L171.71 55L167.14 47.80Q165.71 45.27 163.90 42.41L163.90 42.41L163.63 42.41L156.25 55L151.52 55Z" style="stroke-dasharray: 146, 148; stroke-dashoffset: 147;"><animate attributeName="stroke-dashoffset" to="0" dur="300ms" calcMode="linear" repeatCount="1" fill="freeze" begin="1050ms"></animate></path><path d="M190.24 55.72Q182.05 55.72 182.05 46.03L182.05 46.03L182.05 28.98L177.54 28.98L177.54 25.57L182.21 25.30L182.71 16.88L186.50 16.88L186.50 25.30L194.70 25.30L194.70 28.98L186.50 28.98L186.50 46.20Q186.50 52.03 191.18 52.03L191.18 52.03Q192.66 52.03 194.64 51.26L194.64 51.26L195.52 54.62Q192.22 55.72 190.24 55.72L190.24 55.72Z" style="stroke-dasharray: 123, 125; stroke-dashoffset: 124;"><animate attributeName="stroke-dashoffset" to="0" dur="300ms" calcMode="linear" repeatCount="1" fill="freeze" begin="1200ms"></animate></path><path d="M197.28 41.41L197.28 37.89L211.20 37.89L211.20 41.41L197.28 41.41Z" style="stroke-dasharray: 34, 36; stroke-dashoffset: 35;"><animate attributeName="stroke-dashoffset" to="0" dur="300ms" calcMode="linear" repeatCount="1" fill="freeze" begin="1350ms"></animate></path><path d="M225.55 55.72Q221.76 55.72 219.39 53.57L219.39 53.57Q216.92 51.26 216.92 47.35L216.92 47.35Q216.92 42.52 221.37 39.88L221.37 39.88Q225.66 37.34 235.34 36.25L235.34 36.25Q235.45 28.27 229.02 28.27L229.02 28.27Q224.67 28.27 220.00 31.57L220.00 31.57L218.18 28.43Q224.12 24.53 229.73 24.53L229.73 24.53Q239.80 24.53 239.80 36.58L239.80 36.58L239.80 55L236.11 55L235.73 51.37L235.56 51.37Q230.45 55.72 225.55 55.72L225.55 55.72ZM226.76 52.09Q230.72 52.09 235.34 47.96L235.34 47.96L235.34 39.27Q227.70 40.15 224.34 42.08L224.34 42.08Q221.26 43.95 221.26 47.08L221.26 47.08Q221.26 52.09 226.76 52.09L226.76 52.09Z" style="stroke-dasharray: 174, 176; stroke-dashoffset: 175;"><animate attributeName="stroke-dashoffset" to="0" dur="300ms" calcMode="linear" repeatCount="1" fill="freeze" begin="1500ms"></animate></path><path d="M249.59 55L249.59 25.30L253.22 25.30L253.66 29.64L253.82 29.64Q259.05 24.53 263.83 24.53L263.83 24.53Q272.91 24.53 272.91 36.14L272.91 36.14L272.91 55L268.40 55L268.40 36.69Q268.40 28.43 262.51 28.43L262.51 28.43Q258.72 28.43 254.04 33.27L254.04 33.27L254.04 55L249.59 55Z" style="stroke-dasharray: 155, 157; stroke-dashoffset: 156;"><animate attributeName="stroke-dashoffset" to="0" dur="300ms" calcMode="linear" repeatCount="1" fill="freeze" begin="1650ms"></animate></path><path d="M282.87 55L282.87 25.30L287.32 25.30L287.32 55L282.87 55ZM285.12 18.92Q283.69 18.92 282.81 18.04L282.81 18.04Q281.88 17.21 281.88 15.90L281.88 15.90Q281.88 12.81 285.12 12.81L285.12 12.81Q286.50 12.81 287.43 13.64L287.43 13.64Q288.37 14.52 288.37 15.90L288.37 15.90Q288.37 17.21 287.43 18.04L287.43 18.04Q286.44 18.92 285.12 18.92L285.12 18.92Z" style="stroke-dasharray: 88, 90; stroke-dashoffset: 89;"><animate attributeName="stroke-dashoffset" to="0" dur="300ms" calcMode="linear" repeatCount="1" fill="freeze" begin="1800ms"></animate></path><path d="M297.66 55L297.66 25.30L301.29 25.30L301.73 29.70L301.89 29.70Q306.57 24.53 311.13 24.53L311.13 24.53Q317.46 24.53 319.33 30.30L319.33 30.30Q324.72 24.53 329.23 24.53L329.23 24.53Q338.25 24.53 338.25 36.14L338.25 36.14L338.25 55L333.74 55L333.74 36.69Q333.74 28.43 327.97 28.43L327.97 28.43Q324.44 28.43 320.15 33.27L320.15 33.27L320.15 55L315.70 55L315.70 36.69Q315.70 28.43 309.87 28.43L309.87 28.43Q306.30 28.43 302.12 33.27L302.12 33.27L302.12 55L297.66 55Z" style="stroke-dasharray: 242, 244; stroke-dashoffset: 243;"><animate attributeName="stroke-dashoffset" to="0" dur="300ms" calcMode="linear" repeatCount="1" fill="freeze" begin="1950ms"></animate></path><path d="M354.92 55.72Q351.12 55.72 348.75 53.57L348.75 53.57Q346.28 51.26 346.28 47.35L346.28 47.35Q346.28 42.52 350.74 39.88L350.74 39.88Q355.03 37.34 364.71 36.25L364.71 36.25Q364.81 28.27 358.38 28.27L358.38 28.27Q354.04 28.27 349.36 31.57L349.36 31.57L347.55 28.43Q353.49 24.53 359.10 24.53L359.10 24.53Q369.16 24.53 369.16 36.58L369.16 36.58L369.16 55L365.48 55L365.09 51.37L364.93 51.37Q359.81 55.72 354.92 55.72L354.92 55.72ZM356.13 52.09Q360.09 52.09 364.71 47.96L364.71 47.96L364.71 39.27Q357.06 40.15 353.71 42.08L353.71 42.08Q350.63 43.95 350.63 47.08L350.63 47.08Q350.63 52.09 356.13 52.09L356.13 52.09Z" style="stroke-dasharray: 174, 176; stroke-dashoffset: 175;"><animate attributeName="stroke-dashoffset" to="0" dur="300ms" calcMode="linear" repeatCount="1" fill="freeze" begin="2100ms"></animate></path><path d="M387.15 55.72Q378.95 55.72 378.95 46.03L378.95 46.03L378.95 28.98L374.44 28.98L374.44 25.57L379.12 25.30L379.61 16.88L383.41 16.88L383.41 25.30L391.60 25.30L391.60 28.98L383.41 28.98L383.41 46.20Q383.41 52.03 388.08 52.03L388.08 52.03Q389.57 52.03 391.55 51.26L391.55 51.26L392.43 54.62Q389.13 55.72 387.15 55.72L387.15 55.72Z" style="stroke-dasharray: 123, 125; stroke-dashoffset: 124;"><animate attributeName="stroke-dashoffset" to="0" dur="300ms" calcMode="linear" repeatCount="1" fill="freeze" begin="2250ms"></animate></path><path d="M409.37 55.72Q403.32 55.72 399.41 51.59L399.41 51.59Q395.29 47.30 395.29 40.20L395.29 40.20Q395.29 33.22 399.36 28.71L399.36 28.71Q403.21 24.53 408.54 24.53L408.54 24.53Q414.10 24.53 417.18 28.27L417.18 28.27Q420.26 31.95 420.26 38.45L420.26 38.45Q420.26 40.20 420.04 41.14L420.04 41.14L399.74 41.14Q399.96 46.09 402.71 49.12L402.71 49.12Q405.46 52.14 409.92 52.14L409.92 52.14Q413.88 52.14 417.45 49.72L417.45 49.72L419.10 52.69Q414.37 55.72 409.37 55.72L409.37 55.72ZM399.69 37.89L416.30 37.89Q416.30 28.16 408.60 28.16L408.60 28.16Q405.19 28.16 402.71 30.69L402.71 30.69Q400.13 33.39 399.69 37.89L399.69 37.89Z" style="stroke-dasharray: 173, 175; stroke-dashoffset: 174;"><animate attributeName="stroke-dashoffset" to="0" dur="300ms" calcMode="linear" repeatCount="1" fill="freeze" begin="2400ms"></animate></path></g>
      </svg>