<svg width="970.64" height="40.032" viewBox="0 0 1017.6400000000001 41.032" xmlns="http://www.w3.org/2000/svg" data-copyright="https://github.com/oubenruing/svg-text-animate" style="vertical-align: text-top; ">
          <g id="svgGroup" stroke-linecap="round" stroke="#000" fill="none" style="fill:none; 
            stroke:#5db4f2;
            stroke-width:1px;"><path d="M7.46 32.42Q3.90 32.42 1.02 30.05L1.02 30.05L2.34 28.29Q4.83 30.37 7.55 30.37L7.55 30.37Q9.28 30.37 10.24 29.54L10.24 29.54Q11.14 28.74 11.14 27.49L11.14 27.49Q11.14 25.54 7.10 24.10L7.10 24.10Q4.67 23.20 3.58 22.37L3.58 22.37Q1.89 21.06 1.89 19.10L1.89 19.10Q1.89 17.02 3.42 15.68L3.42 15.68Q5.02 14.27 7.74 14.27L7.74 14.27Q10.59 14.27 12.99 16.19L12.99 16.19L11.74 17.89Q9.63 16.35 7.74 16.35L7.74 16.35Q6.11 16.35 5.22 17.12L5.22 17.12Q4.38 17.86 4.38 18.98L4.38 18.98Q4.38 20.13 5.60 20.90L5.60 20.90Q6.30 21.38 8.29 22.08L8.29 22.08Q10.98 23.14 11.90 23.84L11.90 23.84Q13.63 25.18 13.63 27.36L13.63 27.36Q13.63 29.54 12.03 30.91L12.03 30.91Q10.34 32.42 7.46 32.42L7.46 32.42Z" style="stroke-dasharray: 81, 83; stroke-dashoffset: 82; animation: 1500ms linear 0ms infinite normal forwards running STAdraw;"></path><path d="M21.54 32L15.23 14.72L17.95 14.72L21.38 24.77Q21.98 26.82 23.01 29.86L23.01 29.86L23.14 29.86L24.77 24.77L28.19 14.72L30.75 14.72L24.58 32L21.54 32Z" style="stroke-dasharray: 77, 79; stroke-dashoffset: 78; animation: 1500ms linear 0ms infinite normal forwards running STAdraw;"></path><path d="M39.97 40.03Q36.74 40.03 34.82 38.82L34.82 38.82Q32.83 37.57 32.83 35.36L32.83 35.36Q32.83 33.09 35.39 31.39L35.39 31.39L35.39 31.26Q33.82 30.30 33.82 28.42L33.82 28.42Q33.82 26.62 35.74 25.22L35.74 25.22L35.74 25.09Q33.50 23.30 33.50 20.45L33.50 20.45Q33.50 17.70 35.39 15.97L35.39 15.97Q37.22 14.27 39.90 14.27L39.90 14.27Q41.09 14.27 42.30 14.72L42.30 14.72L48.29 14.72L48.29 16.74L44.64 16.74Q46.14 18.18 46.14 20.48L46.14 20.48Q46.14 23.20 44.32 24.90L44.32 24.90Q42.56 26.53 39.90 26.53L39.90 26.53Q38.46 26.53 37.25 25.89L37.25 25.89Q36.10 26.88 36.10 28.06L36.10 28.06Q36.10 30.02 39.17 30.02L39.17 30.02L42.62 30.02Q48.58 30.02 48.58 34.11L48.58 34.11Q48.58 36.54 46.24 38.24L46.24 38.24Q43.78 40.03 39.97 40.03L39.97 40.03ZM39.90 24.74Q41.50 24.74 42.62 23.55L42.62 23.55Q43.78 22.34 43.78 20.45L43.78 20.45Q43.78 18.53 42.62 17.34L42.62 17.34Q41.54 16.22 39.90 16.22L39.90 16.22Q38.24 16.22 37.15 17.34L37.15 17.34Q36.03 18.50 36.03 20.45L36.03 20.45Q36.03 22.34 37.18 23.55L37.18 23.55Q38.30 24.74 39.90 24.74L39.90 24.74ZM40.32 38.21Q42.82 38.21 44.48 37.06L44.48 37.06Q46.02 35.97 46.02 34.50L46.02 34.50Q46.02 32.22 42.40 32.22L42.40 32.22L39.23 32.22Q38.24 32.22 37.02 31.94L37.02 31.94Q35.14 33.28 35.14 35.04L35.14 35.04Q35.14 36.48 36.51 37.34L36.51 37.34Q37.89 38.21 40.32 38.21L40.32 38.21Z" style="stroke-dasharray: 152, 154; stroke-dashoffset: 153; animation: 1500ms linear 0ms infinite normal forwards running STAdraw;"></path><path d="M50.46 24.10L50.46 22.05L58.56 22.05L58.56 24.10L50.46 24.10Z" style="stroke-dasharray: 20, 22; stroke-dashoffset: 21; animation: 1500ms linear 0ms infinite normal forwards running STAdraw;"></path><path d="M68.26 32.42Q63.49 32.42 63.49 26.78L63.49 26.78L63.49 16.86L60.86 16.86L60.86 14.88L63.58 14.72L63.87 9.82L66.08 9.82L66.08 14.72L70.85 14.72L70.85 16.86L66.08 16.86L66.08 26.88Q66.08 30.27 68.80 30.27L68.80 30.27Q69.66 30.27 70.82 29.82L70.82 29.82L71.33 31.78Q69.41 32.42 68.26 32.42L68.26 32.42Z" style="stroke-dasharray: 71, 73; stroke-dashoffset: 72; animation: 1500ms linear 0ms infinite normal forwards running STAdraw;"></path><path d="M81.66 32.42Q78.14 32.42 75.87 30.02L75.87 30.02Q73.47 27.52 73.47 23.39L73.47 23.39Q73.47 19.33 75.84 16.70L75.84 16.70Q78.08 14.27 81.18 14.27L81.18 14.27Q84.42 14.27 86.21 16.45L86.21 16.45Q88.00 18.59 88.00 22.37L88.00 22.37Q88.00 23.39 87.87 23.94L87.87 23.94L76.06 23.94Q76.19 26.82 77.79 28.58L77.79 28.58Q79.39 30.34 81.98 30.34L81.98 30.34Q84.29 30.34 86.37 28.93L86.37 28.93L87.33 30.66Q84.58 32.42 81.66 32.42L81.66 32.42ZM76.03 22.05L85.70 22.05Q85.70 16.38 81.22 16.38L81.22 16.38Q79.23 16.38 77.79 17.86L77.79 17.86Q76.29 19.42 76.03 22.05L76.03 22.05Z" style="stroke-dasharray: 101, 103; stroke-dashoffset: 102; animation: 1500ms linear 0ms infinite normal forwards running STAdraw;"></path><path d="M89.82 32L95.55 22.98L90.27 14.72L93.09 14.72L95.52 18.66Q96.06 19.62 97.28 21.54L97.28 21.54L97.41 21.54L101.28 14.72L103.97 14.72L98.72 23.23L104.42 32L101.57 32L98.91 27.81Q98.08 26.34 97.02 24.67L97.02 24.67L96.86 24.67L92.58 32L89.82 32Z" style="stroke-dasharray: 85, 87; stroke-dashoffset: 86; animation: 1500ms linear 0ms infinite normal forwards running STAdraw;"></path><path d="M113.18 32.42Q108.42 32.42 108.42 26.78L108.42 26.78L108.42 16.86L105.79 16.86L105.79 14.88L108.51 14.72L108.80 9.82L111.01 9.82L111.01 14.72L115.78 14.72L115.78 16.86L111.01 16.86L111.01 26.88Q111.01 30.27 113.73 30.27L113.73 30.27Q114.59 30.27 115.74 29.82L115.74 29.82L116.26 31.78Q114.34 32.42 113.18 32.42L113.18 32.42Z" style="stroke-dasharray: 71, 73; stroke-dashoffset: 72; animation: 1500ms linear 0ms infinite normal forwards running STAdraw;"></path><path d="M118.18 24.10L118.18 22.05L126.27 22.05L126.27 24.10L118.18 24.10Z" style="stroke-dasharray: 20, 22; stroke-dashoffset: 21; animation: 1500ms linear 0ms infinite normal forwards running STAdraw;"></path><path d="M134.62 32.42Q132.42 32.42 131.04 31.17L131.04 31.17Q129.60 29.82 129.60 27.55L129.60 27.55Q129.60 24.74 132.19 23.20L132.19 23.20Q134.69 21.73 140.32 21.09L140.32 21.09Q140.38 16.45 136.64 16.45L136.64 16.45Q134.11 16.45 131.39 18.37L131.39 18.37L130.34 16.54Q133.79 14.27 137.06 14.27L137.06 14.27Q142.91 14.27 142.91 21.28L142.91 21.28L142.91 32L140.77 32L140.54 29.89L140.45 29.89Q137.47 32.42 134.62 32.42L134.62 32.42ZM135.33 30.30Q137.63 30.30 140.32 27.90L140.32 27.90L140.32 22.85Q135.87 23.36 133.92 24.48L133.92 24.48Q132.13 25.57 132.13 27.39L132.13 27.39Q132.13 30.30 135.33 30.30L135.33 30.30Z" style="stroke-dasharray: 101, 103; stroke-dashoffset: 102; animation: 1500ms linear 0ms infinite normal forwards running STAdraw;"></path><path d="M148.61 32L148.61 14.72L150.72 14.72L150.98 17.25L151.07 17.25Q154.11 14.27 156.90 14.27L156.90 14.27Q162.18 14.27 162.18 21.02L162.18 21.02L162.18 32L159.55 32L159.55 21.34Q159.55 16.54 156.13 16.54L156.13 16.54Q153.92 16.54 151.20 19.36L151.20 19.36L151.20 32L148.61 32Z" style="stroke-dasharray: 90, 92; stroke-dashoffset: 91; animation: 1500ms linear 0ms infinite normal forwards running STAdraw;"></path><path d="M167.97 32L167.97 14.72L170.56 14.72L170.56 32L167.97 32ZM169.28 11.01Q168.45 11.01 167.94 10.50L167.94 10.50Q167.39 10.02 167.39 9.25L167.39 9.25Q167.39 7.46 169.28 7.46L169.28 7.46Q170.08 7.46 170.62 7.94L170.62 7.94Q171.17 8.45 171.17 9.25L171.17 9.25Q171.17 10.02 170.62 10.50L170.62 10.50Q170.05 11.01 169.28 11.01L169.28 11.01Z" style="stroke-dasharray: 51, 53; stroke-dashoffset: 52; animation: 1500ms linear 0ms infinite normal forwards running STAdraw;"></path><path d="M176.58 32L176.58 14.72L178.69 14.72L178.94 17.28L179.04 17.28Q181.76 14.27 184.42 14.27L184.42 14.27Q188.10 14.27 189.18 17.63L189.18 17.63Q192.32 14.27 194.94 14.27L194.94 14.27Q200.19 14.27 200.19 21.02L200.19 21.02L200.19 32L197.57 32L197.57 21.34Q197.57 16.54 194.21 16.54L194.21 16.54Q192.16 16.54 189.66 19.36L189.66 19.36L189.66 32L187.07 32L187.07 21.34Q187.07 16.54 183.68 16.54L183.68 16.54Q181.60 16.54 179.17 19.36L179.17 19.36L179.17 32L176.58 32Z" style="stroke-dasharray: 141, 143; stroke-dashoffset: 142; animation: 1500ms linear 0ms infinite normal forwards running STAdraw;"></path><path d="M209.89 32.42Q207.68 32.42 206.30 31.17L206.30 31.17Q204.86 29.82 204.86 27.55L204.86 27.55Q204.86 24.74 207.46 23.20L207.46 23.20Q209.95 21.73 215.58 21.09L215.58 21.09Q215.65 16.45 211.90 16.45L211.90 16.45Q209.38 16.45 206.66 18.37L206.66 18.37L205.60 16.54Q209.06 14.27 212.32 14.27L212.32 14.27Q218.18 14.27 218.18 21.28L218.18 21.28L218.18 32L216.03 32L215.81 29.89L215.71 29.89Q212.74 32.42 209.89 32.42L209.89 32.42ZM210.59 30.30Q212.90 30.30 215.58 27.90L215.58 27.90L215.58 22.85Q211.14 23.36 209.18 24.48L209.18 24.48Q207.39 25.57 207.39 27.39L207.39 27.39Q207.39 30.30 210.59 30.30L210.59 30.30Z" style="stroke-dasharray: 101, 103; stroke-dashoffset: 102; animation: 1500ms linear 0ms infinite normal forwards running STAdraw;"></path><path d="M229.12 32.42Q224.35 32.42 224.35 26.78L224.35 26.78L224.35 16.86L221.73 16.86L221.73 14.88L224.45 14.72L224.74 9.82L226.94 9.82L226.94 14.72L231.71 14.72L231.71 16.86L226.94 16.86L226.94 26.88Q226.94 30.27 229.66 30.27L229.66 30.27Q230.53 30.27 231.68 29.82L231.68 29.82L232.19 31.78Q230.27 32.42 229.12 32.42L229.12 32.42Z" style="stroke-dasharray: 71, 73; stroke-dashoffset: 72; animation: 1500ms linear 0ms infinite normal forwards running STAdraw;"></path><path d="M242.53 32.42Q239.01 32.42 236.74 30.02L236.74 30.02Q234.34 27.52 234.34 23.39L234.34 23.39Q234.34 19.33 236.70 16.70L236.70 16.70Q238.94 14.27 242.05 14.27L242.05 14.27Q245.28 14.27 247.07 16.45L247.07 16.45Q248.86 18.59 248.86 22.37L248.86 22.37Q248.86 23.39 248.74 23.94L248.74 23.94L236.93 23.94Q237.06 26.82 238.66 28.58L238.66 28.58Q240.26 30.34 242.85 30.34L242.85 30.34Q245.15 30.34 247.23 28.93L247.23 28.93L248.19 30.66Q245.44 32.42 242.53 32.42L242.53 32.42ZM236.90 22.05L246.56 22.05Q246.56 16.38 242.08 16.38L242.08 16.38Q240.10 16.38 238.66 17.86L238.66 17.86Q237.15 19.42 236.90 22.05L236.90 22.05Z" style="stroke-dasharray: 101, 103; stroke-dashoffset: 102; animation: 1500ms linear 0ms infinite normal forwards running STAdraw;"></path></g>
      <style>@keyframes STAdraw{50%{stroke-dashoffset:0} 100%{stroke-dashoffset:0}</style></svg>