<svg width="21.625" height="24.75" viewBox="0 0 21.625 25.75" xmlns="http://www.w3.org/2000/svg" data-copyright="https://github.com/oubenruing/svg-text-animate" style="vertical-align: text-top; ">
          <g id="svgGroup" stroke-linecap="round" stroke="#000" fill="none" style="fill:none; 
            stroke:#5db4f2;
            stroke-width:1px;"><path d="M20.04 15.07C20.41 14.43 20.63 13.75 20.63 12.93C20.63 11.04 19.03 9.25 16.94 9.25L15.37 9.25C15.58 8.70 15.75 8.04 15.75 7.25C15.75 4.12 14.13 2.75 11.66 2.75C9.01 2.75 9.16 6.83 8.57 7.42C7.60 8.39 6.44 10.27 5.62 11L1.38 11C0.62 11 0 11.62 0 12.38L0 22.69C0 23.45 0.62 24.06 1.38 24.06L4.13 24.06C4.76 24.06 5.30 23.63 5.46 23.03C7.37 23.08 8.68 24.75 13.10 24.75C13.41 24.75 13.75 24.75 14.05 24.75C17.36 24.75 18.86 23.06 18.90 20.65C19.48 19.86 19.78 18.80 19.65 17.78C20.07 16.98 20.24 16.04 20.04 15.07ZM17.38 17.38C17.92 18.29 17.44 19.50 16.78 19.86C17.11 21.95 16.03 22.69 14.50 22.69L12.88 22.69C9.80 22.69 7.80 21.06 5.50 21.06L5.50 13.06L5.97 13.06C7.19 13.06 8.89 10.02 10.03 8.87C11.25 7.66 10.84 5.63 11.66 4.81C13.69 4.81 13.69 6.23 13.69 7.25C13.69 8.93 12.47 9.69 12.47 11.31L16.94 11.31C17.84 11.31 18.56 12.12 18.56 12.94C18.57 13.75 18.01 14.56 17.61 14.56C18.19 15.19 18.31 16.51 17.38 17.38ZM3.78 21.31C3.78 21.88 3.32 22.34 2.75 22.34C2.18 22.34 1.72 21.88 1.72 21.31C1.72 20.74 2.18 20.28 2.75 20.28C3.32 20.28 3.78 20.74 3.78 21.31Z" style="stroke-dasharray: 136, 138; stroke-dashoffset: 137; animation: 2000ms linear 0ms infinite alternate forwards running STAdraw;"></path></g>
      <style>@keyframes STAdraw{to{stroke-dashoffset:0}}</style></svg>